<svg width="52" height="52" viewBox="0 0 52 52" fill="none" xmlns="http://www.w3.org/2000/svg">
<path d="M25.7654 3.46317C27.8572 3.46317 30.2463 5.34259 32.2064 9.54103C33.0899 11.4353 33.8246 13.6885 34.3598 16.205H17.171C17.7062 13.6885 18.441 11.4353 19.3244 9.54103C21.2845 5.34259 23.6736 3.46317 25.7654 3.46317ZM16.4384 8.19464C15.3638 10.4967 14.5059 13.2107 13.9198 16.205H5.61208C6.88597 13.5257 8.68025 11.1267 10.8904 9.14772C13.1006 7.16872 15.6824 5.64927 18.4856 4.67789C17.6922 5.78191 17.0066 6.95956 16.4384 8.19464ZM13.4122 19.3905C13.1574 21.4292 13.0236 23.5655 13.0236 25.7614C13.0236 27.9572 13.1574 30.0936 13.4122 32.1323H4.39098C3.77651 30.0645 3.46534 27.9185 3.4672 25.7614C3.4672 23.5464 3.78999 21.4079 4.39098 19.3905H13.4122ZM13.9198 35.3178C14.5059 38.3121 15.3638 41.0261 16.4384 43.3281C17.033 44.6002 17.7147 45.7916 18.4856 46.8449C15.6824 45.8735 13.1006 44.3541 10.8904 42.3751C8.68025 40.3961 6.88597 37.997 5.61208 35.3178H13.9198ZM17.1689 35.3178H34.3598C33.8246 37.8343 33.0899 40.0875 32.2064 41.9818C30.2463 46.1802 27.8572 48.0596 25.7654 48.0596C23.6736 48.0596 21.2845 46.1802 19.3244 41.9818C18.441 40.0875 17.7062 37.8343 17.171 35.3178M34.9098 32.1323H16.6253C16.3484 30.02 16.2101 27.8918 16.2112 25.7614C16.2112 23.5422 16.3577 21.4058 16.6253 19.3905H34.9098C35.1795 21.4058 35.3239 23.5422 35.3239 25.7614C35.3239 27.9806 35.1774 30.117 34.9098 32.1323ZM37.6132 35.3178H45.9209C44.647 37.997 42.8527 40.3961 40.6426 42.3751C38.4324 44.3541 35.8505 45.8735 33.0474 46.8449C33.8408 45.7409 34.5263 44.5632 35.0946 43.3281C36.1691 41.0261 37.0271 38.31 37.6132 35.3178ZM47.142 32.1323H38.1208C38.3756 30.0936 38.5094 27.9572 38.5094 25.7614C38.5094 23.5655 38.3756 21.4292 38.1208 19.3905H47.142C47.743 21.4079 48.0658 23.5464 48.0658 25.7614C48.0658 27.9764 47.743 30.1149 47.142 32.1323ZM33.0453 4.67789C35.8484 5.64927 38.4303 7.16872 40.6404 9.14772C42.8506 11.1267 44.6449 13.5257 45.9188 16.205H37.6111C37.025 13.2107 36.167 10.4967 35.0925 8.19464C34.5242 6.95956 33.8387 5.78191 33.0453 4.67789ZM25.7654 51.2451C39.8388 51.2451 51.2491 39.8348 51.2491 25.7614C51.2491 11.688 39.8388 0.27771 25.7654 0.27771C11.6921 0.27771 0.281738 11.688 0.281738 25.7614C0.281738 39.8348 11.6921 51.2451 25.7654 51.2451Z" fill="black"/>
</svg>
