<svg width="62" height="50" viewBox="0 0 62 50" fill="none" xmlns="http://www.w3.org/2000/svg">
<path d="M31 0.147217L61.5964 22.5925L59.6061 25.0743L53.3635 20.4863V49.3754H8.63662V20.4895L2.39403 25.0743L0.403687 22.5925L31 0.147217ZM19.8311 25.8035C19.8311 27.8961 20.9802 30.1265 23.2783 32.4945C25.5764 34.8626 28.1503 37.3203 31 39.8678C33.9329 37.3203 36.5483 34.8636 38.8464 32.4976C41.1445 30.1317 42.2936 27.9055 42.2936 25.8191C42.2936 24.0874 41.6866 22.6447 40.4726 21.4909C39.2585 20.3413 37.8017 19.7665 36.1021 19.7665C35.0521 19.7665 34.0979 19.9793 33.2396 20.405C32.3813 20.8327 31.6347 21.3699 31 22.0167C30.4463 21.3699 29.7243 20.8327 28.834 20.405C27.9437 19.9793 27.0119 19.7665 26.0386 19.7665C24.3347 19.7665 22.8736 20.3382 21.6553 21.4815C20.4392 22.627 19.8311 24.0676 19.8311 25.8035ZM50.1687 46.2459V18.0797L31 3.99659L11.8314 18.0797V46.2459H50.1687Z" fill="black"/>
</svg>
