<svg width="50" height="49" viewBox="0 0 50 49" fill="none" xmlns="http://www.w3.org/2000/svg">
<path fill-rule="evenodd" clip-rule="evenodd" d="M0.941284 0.702759V38.1273H30.8635V35.4541H3.61446V3.37594H39.7024V6.20951H42.3756V0.702759H0.941284ZM42.3756 14.0687C42.3756 14.7776 42.0939 15.4576 41.5926 15.9589C41.0913 16.4602 40.4113 16.7418 39.7024 16.7418C38.9934 16.7418 38.3135 16.4602 37.8122 15.9589C37.3108 15.4576 37.0292 14.7776 37.0292 14.0687C37.0292 13.3597 37.3108 12.6797 37.8122 12.1784C38.3135 11.6771 38.9934 11.3955 39.7024 11.3955C40.4113 11.3955 41.0913 11.6771 41.5926 12.1784C42.0939 12.6797 42.3756 13.3597 42.3756 14.0687ZM45.0487 14.0687C45.0487 15.4866 44.4855 16.8465 43.4828 17.8491C42.4802 18.8517 41.1203 19.415 39.7024 19.415C38.2844 19.415 36.9246 18.8517 35.9219 17.8491C34.9193 16.8465 34.356 15.4866 34.356 14.0687C34.356 12.6507 34.9193 11.2908 35.9219 10.2882C36.9246 9.28557 38.2844 8.7223 39.7024 8.7223C41.1203 8.7223 42.4802 9.28557 43.4828 10.2882C44.4855 11.2908 45.0487 12.6507 45.0487 14.0687Z" fill="black"/>
<path fill-rule="evenodd" clip-rule="evenodd" d="M33.1435 21.8611C33.889 21.1495 34.8797 20.7522 35.9103 20.7517H41.3662C43.323 20.7517 45.1448 21.4173 46.5482 22.7432C47.8981 24.0183 48.6012 25.653 48.8886 27.2021C49.3403 29.6374 48.8725 32.2985 47.7217 34.6576V45.4786C47.7217 46.3171 47.4065 47.125 46.8386 47.7419C46.2706 48.3588 45.4915 48.7397 44.6559 48.8088C43.8202 48.878 42.9891 48.6304 42.3274 48.1153C41.6658 47.6001 41.222 46.8551 41.0842 46.0279L40.3705 41.7455L39.6567 46.0279C39.5189 46.8551 39.0752 47.6001 38.4135 48.1153C37.7519 48.6304 36.9208 48.878 36.0851 48.8088C35.2494 48.7397 34.4703 48.3588 33.9024 47.7419C33.3344 47.125 33.0192 46.3171 33.0192 45.4786V32.9053C32.4097 33.2573 31.7182 33.4426 31.0143 33.4426H24.1951C23.1316 33.4426 22.1117 33.0202 21.3597 32.2682C20.6078 31.5162 20.1853 30.4963 20.1853 29.4329C20.1853 28.3694 20.6078 27.3495 21.3597 26.5975C22.1117 25.8455 23.1316 25.4231 24.1951 25.4231H29.4078L33.1435 21.8611ZM35.6924 37.4257V45.4786C35.6929 45.646 35.7561 45.8072 35.8697 45.9302C35.9833 46.0531 36.1389 46.129 36.3057 46.1428C36.4725 46.1566 36.6385 46.1073 36.7707 46.0046C36.9029 45.9019 36.9917 45.7533 37.0196 45.5882L38.4137 37.2265C38.4656 36.9144 38.6265 36.6308 38.8678 36.4262C39.1091 36.2216 39.4152 36.1093 39.7316 36.1091H41.0094C41.3257 36.1093 41.6318 36.2216 41.8731 36.4262C42.1144 36.6308 42.2754 36.9144 42.3272 37.2265L43.7213 45.5882C43.7492 45.7533 43.8381 45.9019 43.9703 46.0046C44.1025 46.1073 44.2684 46.1566 44.4352 46.1428C44.6021 46.129 44.7577 46.0531 44.8712 45.9302C44.9848 45.8072 45.0481 45.646 45.0485 45.4786V34.3408C45.0485 34.1268 45.0998 33.916 45.1982 33.726C46.2301 31.7331 46.6057 29.5505 46.2608 27.6899C46.051 26.5592 45.5605 25.4872 44.7131 24.6866C43.8483 23.87 42.7015 23.4249 41.3662 23.4249H35.9116C35.5681 23.4249 35.2366 23.5572 34.988 23.7938L30.866 27.726C30.6176 27.9634 30.2873 28.096 29.9437 28.0963H24.1951C23.8406 28.0963 23.5006 28.2371 23.25 28.4877C22.9993 28.7384 22.8585 29.0784 22.8585 29.4329C22.8585 29.7873 22.9993 30.1273 23.25 30.378C23.5006 30.6286 23.8406 30.7694 24.1951 30.7694H31.0143C31.3579 30.7692 31.6882 30.6366 31.9366 30.3992L33.4336 28.9717C33.623 28.7912 33.8612 28.6702 34.1187 28.6238C34.3762 28.5774 34.6416 28.6075 34.8822 28.7106C35.1227 28.8136 35.3276 28.985 35.4717 29.2034C35.6157 29.4219 35.6925 29.6778 35.6924 29.9394V37.4257Z" fill="black"/>
</svg>
