<svg width="54" height="47" viewBox="0 0 54 47" fill="none" xmlns="http://www.w3.org/2000/svg">
<path d="M49.5238 0.749756H4.47683C3.52649 0.749756 2.61507 1.12728 1.94307 1.79927C1.27108 2.47127 0.893555 3.38269 0.893555 4.33303V45.2848C0.893476 45.5465 0.960291 45.8039 1.08766 46.0325C1.21502 46.2612 1.39871 46.4535 1.62129 46.5912C1.84387 46.7289 2.09794 46.8074 2.3594 46.8193C2.62086 46.8312 2.88102 46.7761 3.11519 46.6592L10.6196 42.907L18.124 46.6592C18.337 46.7656 18.5719 46.8209 18.8099 46.8209C19.048 46.8209 19.2829 46.7656 19.4959 46.6592L27.0003 42.907L34.5047 46.6592C34.7177 46.7656 34.9525 46.8209 35.1906 46.8209C35.4287 46.8209 35.6636 46.7656 35.8766 46.6592L43.381 42.907L50.8854 46.6592C51.0985 46.7654 51.3333 46.8206 51.5713 46.8205C51.8564 46.8209 52.1358 46.7411 52.3776 46.5901C52.6003 46.4527 52.7842 46.2607 52.9119 46.0322C53.0396 45.8038 53.1067 45.5465 53.107 45.2848V4.33303C53.107 3.38269 52.7295 2.47127 52.0575 1.79927C51.3855 1.12728 50.4741 0.749756 49.5238 0.749756ZM50.0356 42.7995L44.0669 39.8152C43.8539 39.7088 43.6191 39.6534 43.381 39.6534C43.1429 39.6534 42.9081 39.7088 42.695 39.8152L35.1906 43.5674L27.6862 39.8152C27.4732 39.7088 27.2384 39.6534 27.0003 39.6534C26.7622 39.6534 26.5274 39.7088 26.3143 39.8152L18.8099 43.5674L11.3055 39.8152C11.0925 39.7088 10.8577 39.6534 10.6196 39.6534C10.3815 39.6534 10.1467 39.7088 9.93365 39.8152L3.96494 42.7995V4.33303C3.96494 4.19727 4.01887 4.06707 4.11487 3.97107C4.21087 3.87507 4.34107 3.82114 4.47683 3.82114H49.5238C49.6595 3.82114 49.7897 3.87507 49.8857 3.97107C49.9817 4.06707 50.0356 4.19727 50.0356 4.33303V42.7995ZM20.1844 13.8773C20.057 13.6218 19.8609 13.4068 19.6181 13.2565C19.3754 13.1063 19.0955 13.0267 18.8099 13.0267C18.5244 13.0267 18.2445 13.1063 18.0017 13.2565C17.759 13.4068 17.5629 13.6218 17.4355 13.8773L9.24515 30.258C9.15507 30.4385 9.10143 30.635 9.08728 30.8362C9.07313 31.0375 9.09875 31.2395 9.16268 31.4308C9.22661 31.6222 9.32761 31.799 9.45989 31.9513C9.59217 32.1036 9.75316 32.2283 9.93365 32.3184C10.1141 32.4085 10.3106 32.4621 10.5118 32.4763C10.7131 32.4904 10.9151 32.4648 11.1064 32.4009C11.2978 32.337 11.4746 32.236 11.6269 32.1037C11.7792 31.9714 11.904 31.8104 11.994 31.6299L13.6167 28.3922H24.0031L25.6258 31.6376C25.8078 32.0021 26.1271 32.2795 26.5134 32.4086C26.8998 32.5377 27.3217 32.508 27.6862 32.3261C28.0508 32.1442 28.3281 31.8249 28.4572 31.4385C28.5863 31.0521 28.5567 30.6302 28.3747 30.2657L20.1844 13.8773ZM15.1524 25.3208L18.8099 18.0058L22.4674 25.3208H15.1524ZM44.9167 22.7613C44.9167 23.1686 44.7549 23.5592 44.4669 23.8472C44.1789 24.1352 43.7883 24.297 43.381 24.297H38.7739V28.9041C38.7739 29.3114 38.6121 29.702 38.3241 29.99C38.0361 30.278 37.6455 30.4398 37.2382 30.4398C36.8309 30.4398 36.4403 30.278 36.1523 29.99C35.8643 29.702 35.7025 29.3114 35.7025 28.9041V24.297H31.0955C30.6882 24.297 30.2976 24.1352 30.0096 23.8472C29.7216 23.5592 29.5598 23.1686 29.5598 22.7613C29.5598 22.354 29.7216 21.9634 30.0096 21.6754C30.2976 21.3874 30.6882 21.2256 31.0955 21.2256H35.7025V16.6186C35.7025 16.2113 35.8643 15.8207 36.1523 15.5327C36.4403 15.2447 36.8309 15.0829 37.2382 15.0829C37.6455 15.0829 38.0361 15.2447 38.3241 15.5327C38.6121 15.8207 38.7739 16.2113 38.7739 16.6186V21.2256H43.381C43.7883 21.2256 44.1789 21.3874 44.4669 21.6754C44.7549 21.9634 44.9167 22.354 44.9167 22.7613Z" fill="black"/>
</svg>
